<svg width="42" height="22" viewBox="0 0 42 22" fill="none" xmlns="http://www.w3.org/2000/svg">
<path d="M23.1076 8.21741C23.1402 8.37211 23.1973 8.40468 23.2706 8.3884C23.6212 8.31511 24.0043 8.03013 24.2244 7.69629C24.4282 7.39501 24.526 6.96346 24.3222 6.78433C24.1429 6.62962 23.8413 6.67033 23.6212 6.86575C23.181 7.25659 23.0505 7.81028 23.1076 8.21741ZM5.62995 21.6444C3.07025 21.6607 0.820334 20.081 0.559474 17.3533C0.41274 15.8388 0.84479 14.4871 1.70074 13.3797C2.45886 12.3864 3.74686 11.564 4.83921 11.3685C5.1979 11.3034 5.67071 11.3441 5.86635 11.5803C6.17612 11.9385 6.08645 12.3375 5.77668 12.4922C4.94519 12.9156 3.94251 13.6403 3.45339 14.6337C3.05395 15.4398 2.97243 16.4169 3.58382 17.3451C4.61096 18.8922 7.47227 18.9329 10.1298 16.4657C10.7901 15.8632 11.377 15.2769 11.9803 14.593C13.1541 13.2576 13.5454 12.7691 15.1024 10.6113C15.1187 10.5869 15.1269 10.5543 15.1187 10.538C15.1024 10.5054 15.0861 10.5054 15.0372 10.4973C13.9938 10.5299 13.0889 10.8393 12.2085 11.4907C11.9558 11.678 11.589 11.6535 11.4259 11.4093C11.2466 11.1324 11.377 10.7741 11.6705 10.5706C13.0889 9.58535 14.6378 9.40621 16.2192 9.13751C16.2192 9.13751 16.3252 9.14565 16.423 9.02351C17.0752 8.19298 17.5643 7.44387 18.2572 6.59705C18.9583 5.74209 19.855 4.96041 20.5397 4.36601C21.5017 3.54362 22.1131 3.26677 22.7408 2.92479C22.9038 2.83522 22.7163 2.73751 22.6674 2.73751C19.1702 2.07797 15.5345 1.23115 12.0699 2.51766C9.66513 3.41334 8.61354 5.31868 9.11895 6.58891C9.47764 7.49273 10.6678 7.63929 11.7846 7.09374C12.7058 6.63776 13.5617 5.91308 14.1731 4.97669C14.5155 4.45558 15.2247 4.83013 14.8416 5.73395C13.8226 8.1197 11.8824 10.0088 9.5184 10.0902C7.50488 10.1553 6.20873 8.67338 6.20873 6.84947C6.21688 3.25049 10.2276 0.881022 14.4421 0.530895C19.5208 0.115628 24.3222 1.45914 29.3601 2.06983C33.2241 2.53395 36.925 2.55023 40.8053 1.65456C41.2618 1.55685 41.5879 1.84998 41.5553 2.3141C41.5145 2.98178 41.001 3.62504 39.7211 4.32529C38.2701 5.12326 36.7457 5.35939 35.1561 5.37568C31.3165 5.40825 27.7379 3.91003 24.0369 3.11206C24.0451 3.27491 24.0858 3.47033 23.9472 3.56804C21.893 5.08255 20.0425 6.61334 18.8034 8.7711C18.7626 8.81995 18.7789 8.86881 18.8605 8.86066C19.9365 8.80367 20.9066 8.77924 21.9174 8.69781C22.0968 8.68153 22.0968 8.64082 22.0805 8.51054C21.9908 7.76957 22.2109 6.92275 22.863 6.33649C23.5315 5.73395 24.3711 5.66881 24.9255 6.10036C25.5532 6.58891 25.5042 7.47644 25.1537 8.13598C24.8032 8.81181 24.2244 9.17008 23.6619 9.34107C23.6619 9.34107 23.5478 9.3655 23.5641 9.47135C23.5886 9.64234 24.3467 10.0658 24.4119 10.1716C24.4771 10.2775 24.4445 10.4403 24.3304 10.5706C24.2489 10.6602 24.1266 10.7497 23.9635 10.7497C23.8331 10.7497 23.7516 10.7009 23.5886 10.6113C23.2462 10.424 22.8223 10.1228 22.537 9.76448C22.4391 9.64234 22.3902 9.64234 22.1457 9.65048C21.0533 9.71562 19.3577 9.87847 18.2083 10.0169C17.9311 10.0495 17.8904 10.1065 17.8333 10.196C15.9991 13.2169 14.0427 16.4739 11.8906 18.6561C9.58361 21.0093 7.66792 21.6281 5.62995 21.6444Z" fill="#0F0F0F"/>
</svg>
