<svg width="56" height="47" viewBox="0 0 56 47" fill="none" xmlns="http://www.w3.org/2000/svg">
<path d="M29.6667 9.16667H30.5C31.4205 9.16667 32.1667 9.91286 32.1667 10.8333V13.3333C32.1667 14.0237 32.7263 14.5833 33.4167 14.5833C34.107 14.5833 34.6667 14.0237 34.6667 13.3333V7.5L32.1667 5" stroke="#0F0F0F" stroke-width="1.75" stroke-linecap="round" stroke-linejoin="round"/>
<path d="M21.3333 16.6666V4.99998C21.3333 4.07951 22.0795 3.33331 23 3.33331H28C28.9205 3.33331 29.6667 4.07951 29.6667 4.99998V16.6666" stroke="#0F0F0F" stroke-width="1.75" stroke-linecap="round" stroke-linejoin="round"/>
<path d="M20.5 16.6667H30.5" stroke="#0F0F0F" stroke-width="1.75" stroke-linecap="round" stroke-linejoin="round"/>
<path d="M33 5.83331V6.66665C33 7.12688 33.3731 7.49998 33.8333 7.49998H34.6667" stroke="#0F0F0F" stroke-width="1.75" stroke-linecap="round" stroke-linejoin="round"/>
<path d="M21.3333 9.16667H29.6667" stroke="#0F0F0F" stroke-width="1.75" stroke-linecap="round" stroke-linejoin="round"/>
<path d="M5.246 41V31.2H6.618V41H5.246ZM6.394 41V39.74H11.168V41H6.394ZM6.394 36.604V35.372H10.692V36.604H6.394ZM6.394 32.46V31.2H11.14V32.46H6.394ZM13.1955 41V31.2H14.5255V41H13.1955ZM19.4614 41.168C18.78 41.168 18.178 41.014 17.6554 40.706C17.1327 40.3887 16.722 39.9547 16.4234 39.404C16.1247 38.8533 15.9754 38.2187 15.9754 37.5C15.9754 36.7813 16.1247 36.1467 16.4234 35.596C16.722 35.0453 17.1327 34.616 17.6554 34.308C18.1874 33.9907 18.794 33.832 19.4754 33.832C20.11 33.832 20.67 33.9953 21.1554 34.322C21.65 34.6393 22.0327 35.0967 22.3034 35.694C22.5834 36.282 22.7234 36.9773 22.7234 37.78H21.3934C21.4027 37.1827 21.328 36.6787 21.1694 36.268C21.02 35.8573 20.796 35.5493 20.4974 35.344C20.208 35.1293 19.858 35.022 19.4474 35.022C19.0087 35.022 18.6307 35.1247 18.3134 35.33C17.996 35.526 17.7487 35.8107 17.5714 36.184C17.4034 36.548 17.3194 36.996 17.3194 37.528C17.3194 38.0227 17.4174 38.452 17.6134 38.816C17.8094 39.1707 18.0754 39.4507 18.4114 39.656C18.7474 39.852 19.13 39.95 19.5594 39.95C20.0167 39.95 20.3947 39.8427 20.6934 39.628C21.0014 39.4133 21.244 39.138 21.4214 38.802L22.6114 39.348C22.4247 39.712 22.182 40.034 21.8834 40.314C21.5847 40.5847 21.23 40.7947 20.8194 40.944C20.418 41.0933 19.9654 41.168 19.4614 41.168ZM16.8434 37.78L16.8574 36.688H21.9814V37.78H16.8434ZM27.2293 41.168C26.5293 41.168 25.9086 41.014 25.3673 40.706C24.8259 40.3887 24.4013 39.9547 24.0933 39.404C23.7946 38.8533 23.6453 38.2187 23.6453 37.5C23.6453 36.7813 23.7946 36.1467 24.0933 35.596C24.4013 35.0453 24.8213 34.616 25.3533 34.308C25.8946 33.9907 26.5106 33.832 27.2013 33.832C27.8826 33.832 28.4939 33.9907 29.0353 34.308C29.5859 34.6253 29.9966 35.078 30.2673 35.666L29.0633 36.17C28.8859 35.8247 28.6293 35.554 28.2933 35.358C27.9666 35.162 27.5886 35.064 27.1593 35.064C26.7393 35.064 26.3659 35.1667 26.0393 35.372C25.7126 35.5773 25.4559 35.8667 25.2693 36.24C25.0826 36.604 24.9893 37.024 24.9893 37.5C24.9893 37.976 25.0826 38.396 25.2693 38.76C25.4559 39.124 25.7173 39.4133 26.0533 39.628C26.3893 39.8333 26.7673 39.936 27.1873 39.936C27.6166 39.936 27.9993 39.8287 28.3353 39.614C28.6713 39.39 28.9233 39.0913 29.0913 38.718L30.3093 39.208C30.0386 39.824 29.6279 40.3047 29.0773 40.65C28.5359 40.9953 27.9199 41.168 27.2293 41.168ZM34.3272 41.168C33.6272 41.168 33.0858 40.9907 32.7032 40.636C32.3205 40.272 32.1292 39.754 32.1292 39.082V31.816H33.4592V38.886C33.4592 39.2313 33.5432 39.4973 33.7112 39.684C33.8885 39.8613 34.1405 39.95 34.4672 39.95C34.5605 39.95 34.6632 39.9313 34.7752 39.894C34.8872 39.8567 35.0225 39.782 35.1812 39.67L35.6852 40.706C35.4425 40.8647 35.2092 40.9813 34.9852 41.056C34.7705 41.1307 34.5512 41.168 34.3272 41.168ZM30.9392 35.148V34H35.4472V35.148H30.9392ZM37.8102 37.234C37.8102 36.478 37.9549 35.862 38.2442 35.386C38.5336 34.91 38.9069 34.5553 39.3642 34.322C39.8216 34.0887 40.3022 33.972 40.8062 33.972V35.232C40.3862 35.232 39.9849 35.2973 39.6022 35.428C39.2289 35.5493 38.9209 35.7547 38.6782 36.044C38.4449 36.324 38.3282 36.7067 38.3282 37.192L37.8102 37.234ZM36.9982 41V34H38.3282V41H36.9982ZM41.9631 41L41.9911 34H43.3071L43.2931 41H41.9631ZM42.6351 32.516C42.4204 32.516 42.2337 32.4367 42.0751 32.278C41.9164 32.11 41.8371 31.9187 41.8371 31.704C41.8371 31.48 41.9164 31.2933 42.0751 31.144C42.2337 30.9853 42.4204 30.906 42.6351 30.906C42.8591 30.906 43.0457 30.9853 43.1951 31.144C43.3537 31.2933 43.4331 31.48 43.4331 31.704C43.4331 31.9187 43.3537 32.11 43.1951 32.278C43.0457 32.4367 42.8591 32.516 42.6351 32.516ZM48.4344 41.168C47.7344 41.168 47.1137 41.014 46.5724 40.706C46.031 40.3887 45.6064 39.9547 45.2984 39.404C44.9997 38.8533 44.8504 38.2187 44.8504 37.5C44.8504 36.7813 44.9997 36.1467 45.2984 35.596C45.6064 35.0453 46.0264 34.616 46.5584 34.308C47.0997 33.9907 47.7157 33.832 48.4064 33.832C49.0877 33.832 49.699 33.9907 50.2404 34.308C50.791 34.6253 51.2017 35.078 51.4724 35.666L50.2684 36.17C50.091 35.8247 49.8344 35.554 49.4984 35.358C49.1717 35.162 48.7937 35.064 48.3644 35.064C47.9444 35.064 47.571 35.1667 47.2444 35.372C46.9177 35.5773 46.661 35.8667 46.4744 36.24C46.2877 36.604 46.1944 37.024 46.1944 37.5C46.1944 37.976 46.2877 38.396 46.4744 38.76C46.661 39.124 46.9224 39.4133 47.2584 39.628C47.5944 39.8333 47.9724 39.936 48.3924 39.936C48.8217 39.936 49.2044 39.8287 49.5404 39.614C49.8764 39.39 50.1284 39.0913 50.2964 38.718L51.5144 39.208C51.2437 39.824 50.833 40.3047 50.2824 40.65C49.741 40.9953 49.125 41.168 48.4344 41.168Z" fill="black"/>
</svg>
