<svg width="57" height="47" viewBox="0 0 57 47" fill="none" xmlns="http://www.w3.org/2000/svg">
<ellipse cx="22.8333" cy="4.99998" rx="1.66667" ry="1.66667" stroke="#0F0F0F" stroke-width="1.5" stroke-linecap="round" stroke-linejoin="round"/>
<ellipse cx="28.6667" cy="4.99998" rx="1.66667" ry="1.66667" stroke="#0F0F0F" stroke-width="1.5" stroke-linecap="round" stroke-linejoin="round"/>
<ellipse cx="34.5" cy="4.99998" rx="1.66667" ry="1.66667" stroke="#0F0F0F" stroke-width="1.5" stroke-linecap="round" stroke-linejoin="round"/>
<ellipse cx="22.8333" cy="15" rx="1.66667" ry="1.66667" stroke="#0F0F0F" stroke-width="1.5" stroke-linecap="round" stroke-linejoin="round"/>
<ellipse cx="28.6667" cy="15" rx="1.66667" ry="1.66667" stroke="#0F0F0F" stroke-width="1.5" stroke-linecap="round" stroke-linejoin="round"/>
<path d="M22.8333 6.66669V13.3334" stroke="#0F0F0F" stroke-width="1.5" stroke-linecap="round" stroke-linejoin="round"/>
<path d="M28.6667 6.66669V13.3334" stroke="#0F0F0F" stroke-width="1.5" stroke-linecap="round" stroke-linejoin="round"/>
<path d="M34.5 6.66669V8.33335C34.5 9.25383 33.7538 10 32.8333 10H22.8333" stroke="#0F0F0F" stroke-width="1.5" stroke-linecap="round" stroke-linejoin="round"/>
<path d="M21.1887 41L17.3107 31.2H18.7107L22.6587 41H21.1887ZM13.2927 41L17.2407 31.2H18.6407L14.7627 41H13.2927ZM15.1547 38.382V37.15H20.7967V38.382H15.1547ZM28.462 41L28.378 39.712V34H29.694V41H28.462ZM23.534 38.004V34H24.864V37.584L23.534 38.004ZM24.864 37.584C24.864 38.2093 24.934 38.69 25.074 39.026C25.2233 39.362 25.4287 39.5953 25.69 39.726C25.9513 39.8567 26.2453 39.9267 26.572 39.936C27.1413 39.936 27.5847 39.7353 27.902 39.334C28.2193 38.9327 28.378 38.368 28.378 37.64H28.952C28.952 38.3773 28.8447 39.012 28.63 39.544C28.4153 40.0667 28.1027 40.468 27.692 40.748C27.2907 41.028 26.8053 41.168 26.236 41.168C25.396 41.168 24.7333 40.9067 24.248 40.384C23.772 39.8613 23.534 39.068 23.534 38.004L24.864 37.584ZM34.2516 41.168C33.5516 41.168 33.0103 40.9907 32.6276 40.636C32.245 40.272 32.0536 39.754 32.0536 39.082V31.816H33.3836V38.886C33.3836 39.2313 33.4676 39.4973 33.6356 39.684C33.813 39.8613 34.065 39.95 34.3916 39.95C34.485 39.95 34.5876 39.9313 34.6996 39.894C34.8116 39.8567 34.947 39.782 35.1056 39.67L35.6096 40.706C35.367 40.8647 35.1336 40.9813 34.9096 41.056C34.695 41.1307 34.4756 41.168 34.2516 41.168ZM30.8636 35.148V34H35.3716V35.148H30.8636ZM40.032 41.168C39.332 41.168 38.716 41.014 38.184 40.706C37.652 40.3887 37.232 39.9547 36.924 39.404C36.6253 38.8533 36.476 38.2187 36.476 37.5C36.476 36.7813 36.6253 36.1467 36.924 35.596C37.2227 35.0453 37.638 34.616 38.17 34.308C38.702 33.9907 39.3133 33.832 40.004 33.832C40.6947 33.832 41.306 33.9907 41.838 34.308C42.37 34.616 42.7853 35.0453 43.084 35.596C43.3827 36.1467 43.532 36.7813 43.532 37.5C43.532 38.2187 43.3827 38.8533 43.084 39.404C42.7853 39.9547 42.37 40.3887 41.838 40.706C41.3153 41.014 40.7133 41.168 40.032 41.168ZM40.032 39.95C40.452 39.95 40.8253 39.8473 41.152 39.642C41.4787 39.4273 41.7307 39.138 41.908 38.774C42.0947 38.41 42.188 37.9853 42.188 37.5C42.188 37.0147 42.0947 36.59 41.908 36.226C41.7307 35.862 41.474 35.5773 41.138 35.372C40.802 35.1573 40.424 35.05 40.004 35.05C39.5747 35.05 39.1967 35.1573 38.87 35.372C38.5433 35.5773 38.2867 35.862 38.1 36.226C37.9133 36.59 37.82 37.0147 37.82 37.5C37.82 37.9853 37.9133 38.41 38.1 38.774C38.2867 39.138 38.548 39.4273 38.884 39.642C39.22 39.8473 39.6027 39.95 40.032 39.95Z" fill="black"/>
</svg>
