<svg width="57" height="47" viewBox="0 0 57 47" fill="none" xmlns="http://www.w3.org/2000/svg">
<path d="M36.6666 17.5V15.8333C36.6666 14.2801 35.6043 12.9751 34.1666 12.605M31.25 2.7423C32.4716 3.23679 33.3333 4.43443 33.3333 5.83333C33.3333 7.23224 32.4716 8.42988 31.25 8.92437M32.5 17.5C32.5 15.9469 32.5 15.1703 32.2462 14.5577C31.9079 13.741 31.259 13.092 30.4422 12.7537C29.8297 12.5 29.0531 12.5 27.5 12.5H25C23.4468 12.5 22.6703 12.5 22.0577 12.7537C21.2409 13.092 20.592 13.741 20.2537 14.5577C20 15.1703 20 15.9469 20 17.5M29.5833 5.83333C29.5833 7.67428 28.0909 9.16667 26.25 9.16667C24.409 9.16667 22.9166 7.67428 22.9166 5.83333C22.9166 3.99238 24.409 2.5 26.25 2.5C28.0909 2.5 29.5833 3.99238 29.5833 5.83333Z" stroke="black" stroke-width="1.5" stroke-linecap="round" stroke-linejoin="round"/>
<path d="M1.88731 38.27L0.879313 37.668L5.30331 31.2L6.17131 31.984L1.88731 38.27ZM0.879313 38.746V37.668L1.71931 37.528H8.64931V38.746H0.879313ZM5.40131 41V32.04L5.30331 31.2H6.73131V41H5.40131ZM15.0076 37.5V36.226H17.2896C17.7843 36.226 18.1903 36.0533 18.5076 35.708C18.8249 35.3533 18.9836 34.9007 18.9836 34.35C18.9836 33.9767 18.8996 33.65 18.7316 33.37C18.5636 33.0807 18.3303 32.8567 18.0316 32.698C17.7423 32.53 17.4063 32.4507 17.0236 32.46H15.0076V31.2L17.0376 31.186C17.6909 31.186 18.2649 31.3213 18.7596 31.592C19.2636 31.8627 19.6556 32.236 19.9356 32.712C20.2249 33.1787 20.3696 33.7247 20.3696 34.35C20.3696 34.9567 20.2389 35.498 19.9776 35.974C19.7163 36.45 19.3523 36.8233 18.8856 37.094C18.4283 37.3647 17.9009 37.5 17.3036 37.5H15.0076ZM13.7336 41V31.2H15.1056V41H13.7336ZM24.572 41.168C23.8907 41.168 23.2887 41.014 22.766 40.706C22.2433 40.3887 21.8327 39.9547 21.534 39.404C21.2353 38.8533 21.086 38.2187 21.086 37.5C21.086 36.7813 21.2353 36.1467 21.534 35.596C21.8327 35.0453 22.2433 34.616 22.766 34.308C23.298 33.9907 23.9047 33.832 24.586 33.832C25.2207 33.832 25.7807 33.9953 26.266 34.322C26.7607 34.6393 27.1433 35.0967 27.414 35.694C27.694 36.282 27.834 36.9773 27.834 37.78H26.504C26.5133 37.1827 26.4387 36.6787 26.28 36.268C26.1307 35.8573 25.9067 35.5493 25.608 35.344C25.3187 35.1293 24.9687 35.022 24.558 35.022C24.1193 35.022 23.7413 35.1247 23.424 35.33C23.1067 35.526 22.8593 35.8107 22.682 36.184C22.514 36.548 22.43 36.996 22.43 37.528C22.43 38.0227 22.528 38.452 22.724 38.816C22.92 39.1707 23.186 39.4507 23.522 39.656C23.858 39.852 24.2407 39.95 24.67 39.95C25.1273 39.95 25.5053 39.8427 25.804 39.628C26.112 39.4133 26.3547 39.138 26.532 38.802L27.722 39.348C27.5353 39.712 27.2927 40.034 26.994 40.314C26.6953 40.5847 26.3407 40.7947 25.93 40.944C25.5287 41.0933 25.076 41.168 24.572 41.168ZM21.954 37.78L21.968 36.688H27.092V37.78H21.954ZM29.9599 37.234C29.9599 36.478 30.1046 35.862 30.3939 35.386C30.6833 34.91 31.0566 34.5553 31.5139 34.322C31.9713 34.0887 32.4519 33.972 32.9559 33.972V35.232C32.5359 35.232 32.1346 35.2973 31.7519 35.428C31.3786 35.5493 31.0706 35.7547 30.8279 36.044C30.5946 36.324 30.4779 36.7067 30.4779 37.192L29.9599 37.234ZM29.1479 41V34H30.4779V41H29.1479ZM36.5348 41.168C36.0401 41.168 35.5968 41.0933 35.2048 40.944C34.8221 40.7947 34.4955 40.594 34.2248 40.342C33.9635 40.09 33.7675 39.8053 33.6368 39.488L34.7848 38.984C34.9341 39.2733 35.1581 39.5113 35.4568 39.698C35.7555 39.8847 36.0868 39.978 36.4508 39.978C36.8521 39.978 37.1835 39.9033 37.4448 39.754C37.7061 39.6047 37.8368 39.3947 37.8368 39.124C37.8368 38.8627 37.7388 38.6573 37.5428 38.508C37.3468 38.3587 37.0621 38.2373 36.6888 38.144L36.0308 37.976C35.3775 37.7987 34.8688 37.5327 34.5048 37.178C34.1501 36.8233 33.9728 36.422 33.9728 35.974C33.9728 35.2927 34.1921 34.7653 34.6308 34.392C35.0695 34.0187 35.7181 33.832 36.5768 33.832C36.9968 33.832 37.3795 33.8927 37.7248 34.014C38.0795 34.1353 38.3781 34.308 38.6208 34.532C38.8728 34.756 39.0501 35.022 39.1528 35.33L38.0328 35.834C37.9208 35.554 37.7295 35.3487 37.4588 35.218C37.1881 35.078 36.8708 35.008 36.5068 35.008C36.1335 35.008 35.8395 35.092 35.6248 35.26C35.4101 35.4187 35.3028 35.6427 35.3028 35.932C35.3028 36.0907 35.3915 36.2447 35.5688 36.394C35.7555 36.534 36.0261 36.6507 36.3808 36.744L37.1368 36.926C37.5941 37.038 37.9721 37.2107 38.2708 37.444C38.5695 37.668 38.7935 37.9247 38.9428 38.214C39.0921 38.494 39.1668 38.788 39.1668 39.096C39.1668 39.516 39.0501 39.8847 38.8168 40.202C38.5928 40.51 38.2801 40.748 37.8788 40.916C37.4868 41.084 37.0388 41.168 36.5348 41.168ZM43.7143 41.168C43.0143 41.168 42.3983 41.014 41.8663 40.706C41.3343 40.3887 40.9143 39.9547 40.6063 39.404C40.3076 38.8533 40.1583 38.2187 40.1583 37.5C40.1583 36.7813 40.3076 36.1467 40.6063 35.596C40.9049 35.0453 41.3203 34.616 41.8523 34.308C42.3843 33.9907 42.9956 33.832 43.6863 33.832C44.3769 33.832 44.9883 33.9907 45.5203 34.308C46.0523 34.616 46.4676 35.0453 46.7663 35.596C47.0649 36.1467 47.2143 36.7813 47.2143 37.5C47.2143 38.2187 47.0649 38.8533 46.7663 39.404C46.4676 39.9547 46.0523 40.3887 45.5203 40.706C44.9976 41.014 44.3956 41.168 43.7143 41.168ZM43.7143 39.95C44.1343 39.95 44.5076 39.8473 44.8343 39.642C45.1609 39.4273 45.4129 39.138 45.5903 38.774C45.7769 38.41 45.8703 37.9853 45.8703 37.5C45.8703 37.0147 45.7769 36.59 45.5903 36.226C45.4129 35.862 45.1563 35.5773 44.8203 35.372C44.4843 35.1573 44.1063 35.05 43.6863 35.05C43.2569 35.05 42.8789 35.1573 42.5523 35.372C42.2256 35.5773 41.9689 35.862 41.7823 36.226C41.5956 36.59 41.5023 37.0147 41.5023 37.5C41.5023 37.9853 41.5956 38.41 41.7823 38.774C41.9689 39.138 42.2303 39.4273 42.5663 39.642C42.9023 39.8473 43.2849 39.95 43.7143 39.95ZM48.6714 41V34H49.9174L50.0014 35.288V41H48.6714ZM53.5154 41V37.416L54.8454 36.996V41H53.5154ZM53.5154 37.416C53.5154 36.7813 53.4407 36.3007 53.2914 35.974C53.1514 35.638 52.9507 35.4047 52.6894 35.274C52.4374 35.1433 52.1434 35.0733 51.8074 35.064C51.238 35.064 50.7947 35.2647 50.4774 35.666C50.16 36.0673 50.0014 36.632 50.0014 37.36H49.4274C49.4274 36.6227 49.5347 35.9927 49.7494 35.47C49.964 34.938 50.272 34.532 50.6734 34.252C51.084 33.972 51.574 33.832 52.1434 33.832C52.9834 33.832 53.6414 34.0933 54.1174 34.616C54.6027 35.1293 54.8454 35.9227 54.8454 36.996L53.5154 37.416Z" fill="black"/>
</svg>
