<svg width="56" height="47" viewBox="0 0 56 47" fill="none" xmlns="http://www.w3.org/2000/svg">
<g clip-path="url(#clip0_1_5081)">
<path d="M28 1.66669V3.75002M28 1.66669C23.3976 1.66669 19.6667 5.39765 19.6667 10M28 1.66669C32.6024 1.66669 36.3334 5.39765 36.3334 10M28 16.25V18.3334M28 18.3334C32.6024 18.3334 36.3334 14.6024 36.3334 10M28 18.3334C23.3976 18.3334 19.6667 14.6024 19.6667 10M21.75 10H19.6667M36.3334 10H34.25M33.8987 15.8987L32.4206 14.4206M22.1014 15.8987L23.581 14.4191M22.1014 4.16669L23.5484 5.61373M33.8987 4.16669L29.2499 8.75002M29.6667 10C29.6667 10.9205 28.9205 11.6667 28 11.6667C27.0795 11.6667 26.3334 10.9205 26.3334 10C26.3334 9.07955 27.0795 8.33335 28 8.33335C28.9205 8.33335 29.6667 9.07955 29.6667 10Z" stroke="black" stroke-width="1.5" stroke-linecap="round" stroke-linejoin="round"/>
</g>
<path d="M13.068 41V38.746H8.546V37.668L12.97 31.2H14.398V37.528H16.316V38.746H14.398V41H13.068ZM10.058 37.528H13.068V33.118L10.058 37.528ZM17.2543 42.61L18.0663 39.558H19.5083L18.3323 42.61H17.2543ZM24.5253 41.168C23.7693 41.168 23.0973 40.9533 22.5093 40.524C21.9213 40.0853 21.4593 39.488 21.1233 38.732C20.7966 37.9667 20.6333 37.0893 20.6333 36.1C20.6333 35.1107 20.7966 34.238 21.1233 33.482C21.4593 32.7167 21.9166 32.1193 22.4953 31.69C23.0833 31.2513 23.7599 31.032 24.5253 31.032C25.2906 31.032 25.9626 31.2513 26.5413 31.69C27.1293 32.1193 27.5913 32.7167 27.9273 33.482C28.2633 34.238 28.4313 35.1107 28.4313 36.1C28.4313 37.0893 28.2633 37.9667 27.9273 38.732C27.6006 39.488 27.1433 40.0853 26.5553 40.524C25.9673 40.9533 25.2906 41.168 24.5253 41.168ZM24.5253 39.908C25.0199 39.908 25.4586 39.7447 25.8413 39.418C26.2333 39.0913 26.5366 38.6433 26.7513 38.074C26.9659 37.5047 27.0733 36.8467 27.0733 36.1C27.0733 35.3533 26.9659 34.6953 26.7513 34.126C26.5366 33.5473 26.2333 33.0947 25.8413 32.768C25.4586 32.4413 25.0199 32.278 24.5253 32.278C24.0306 32.278 23.5919 32.4413 23.2093 32.768C22.8266 33.0947 22.5279 33.5473 22.3133 34.126C22.0986 34.6953 21.9913 35.3533 21.9913 36.1C21.9913 36.8467 22.0986 37.5093 22.3133 38.088C22.5279 38.6573 22.8266 39.1053 23.2093 39.432C23.5919 39.7493 24.0306 39.908 24.5253 39.908ZM33.5213 41.168C32.7653 41.168 32.0933 40.9533 31.5053 40.524C30.9173 40.0853 30.4553 39.488 30.1193 38.732C29.7927 37.9667 29.6293 37.0893 29.6293 36.1C29.6293 35.1107 29.7927 34.238 30.1193 33.482C30.4553 32.7167 30.9127 32.1193 31.4913 31.69C32.0793 31.2513 32.756 31.032 33.5213 31.032C34.2867 31.032 34.9587 31.2513 35.5373 31.69C36.1253 32.1193 36.5873 32.7167 36.9233 33.482C37.2593 34.238 37.4273 35.1107 37.4273 36.1C37.4273 37.0893 37.2593 37.9667 36.9233 38.732C36.5967 39.488 36.1393 40.0853 35.5513 40.524C34.9633 40.9533 34.2867 41.168 33.5213 41.168ZM33.5213 39.908C34.016 39.908 34.4547 39.7447 34.8373 39.418C35.2293 39.0913 35.5327 38.6433 35.7473 38.074C35.962 37.5047 36.0693 36.8467 36.0693 36.1C36.0693 35.3533 35.962 34.6953 35.7473 34.126C35.5327 33.5473 35.2293 33.0947 34.8373 32.768C34.4547 32.4413 34.016 32.278 33.5213 32.278C33.0267 32.278 32.588 32.4413 32.2053 32.768C31.8227 33.0947 31.524 33.5473 31.3093 34.126C31.0947 34.6953 30.9873 35.3533 30.9873 36.1C30.9873 36.8467 31.0947 37.5093 31.3093 38.088C31.524 38.6573 31.8227 39.1053 32.2053 39.432C32.588 39.7493 33.0267 39.908 33.5213 39.908ZM42.5174 41.168C41.7614 41.168 41.0894 40.9533 40.5014 40.524C39.9134 40.0853 39.4514 39.488 39.1154 38.732C38.7888 37.9667 38.6254 37.0893 38.6254 36.1C38.6254 35.1107 38.7888 34.238 39.1154 33.482C39.4514 32.7167 39.9088 32.1193 40.4874 31.69C41.0754 31.2513 41.7521 31.032 42.5174 31.032C43.2828 31.032 43.9548 31.2513 44.5334 31.69C45.1214 32.1193 45.5834 32.7167 45.9194 33.482C46.2554 34.238 46.4234 35.1107 46.4234 36.1C46.4234 37.0893 46.2554 37.9667 45.9194 38.732C45.5928 39.488 45.1354 40.0853 44.5474 40.524C43.9594 40.9533 43.2828 41.168 42.5174 41.168ZM42.5174 39.908C43.0121 39.908 43.4508 39.7447 43.8334 39.418C44.2254 39.0913 44.5288 38.6433 44.7434 38.074C44.9581 37.5047 45.0654 36.8467 45.0654 36.1C45.0654 35.3533 44.9581 34.6953 44.7434 34.126C44.5288 33.5473 44.2254 33.0947 43.8334 32.768C43.4508 32.4413 43.0121 32.278 42.5174 32.278C42.0228 32.278 41.5841 32.4413 41.2014 32.768C40.8188 33.0947 40.5201 33.5473 40.3054 34.126C40.0908 34.6953 39.9834 35.3533 39.9834 36.1C39.9834 36.8467 40.0908 37.5093 40.3054 38.088C40.5201 38.6573 40.8188 39.1053 41.2014 39.432C41.5841 39.7493 42.0228 39.908 42.5174 39.908Z" fill="black"/>
<defs>
<clipPath id="clip0_1_5081">
<rect width="20" height="20" fill="white" transform="translate(18)"/>
</clipPath>
</defs>
</svg>
