<svg width="66" height="34" viewBox="0 0 66 34" fill="none" xmlns="http://www.w3.org/2000/svg">
<path d="M64.8645 24.461C64.7412 24.3368 64.6187 24.091 64.4945 23.9668C63.5079 22.981 62.152 22.3635 60.6712 22.3635C59.9598 22.3661 59.2559 22.5091 58.5998 22.7842C57.9437 23.0594 57.3484 23.4612 56.8479 23.9668C56.7245 24.091 56.6012 24.3368 56.4779 24.461C56.3554 24.5843 56.2312 24.831 56.1079 24.9543C55.6145 25.8185 55.2445 26.681 55.2445 27.791C55.2445 28.4076 55.3679 29.0243 55.6145 29.5176C55.6145 29.6418 55.7379 29.8876 55.7379 30.0118C55.8604 30.1351 55.8604 30.3818 55.9845 30.5051C56.9712 32.1085 58.5745 33.0951 60.5479 33.0951C62.5212 33.0951 64.2479 31.9851 65.1112 30.5051C65.2345 30.3818 65.2345 30.1351 65.3587 30.0118C65.482 29.8876 65.4812 29.6418 65.4812 29.5176C65.7287 29.0243 65.8512 28.4076 65.8512 27.791C65.8512 26.8043 65.6045 25.8185 64.9887 24.9543C65.1112 24.831 64.9887 24.7076 64.8645 24.461ZM64.7412 29.5176C64.6187 29.6418 64.6187 29.8876 64.4945 30.0118C64.3712 30.1351 64.2479 30.3818 64.1245 30.5051C63.7224 31.0412 63.2011 31.4764 62.6017 31.7761C62.0023 32.0758 61.3413 32.2318 60.6712 32.2318C59.1912 32.2318 58.0812 31.6151 57.2179 30.5051C57.0945 30.3818 56.9712 30.1351 56.8479 30.0118C56.7254 29.8876 56.6012 29.6418 56.6012 29.5176C56.3545 29.0243 56.2304 28.4076 56.2304 27.791C56.2304 26.681 56.6012 25.8185 57.2179 24.9543C57.3412 24.831 57.4645 24.5843 57.7112 24.461C57.9579 24.3368 58.0812 24.091 58.3279 23.9668C58.9972 23.5613 59.7653 23.348 60.5479 23.3501C61.3305 23.3477 62.0986 23.5611 62.7679 23.9668C63.0145 24.091 63.262 24.2135 63.3845 24.461C63.5079 24.5843 63.7545 24.7068 63.8779 24.9543C64.4945 25.6943 64.8645 26.681 64.8645 27.791C65.1112 28.4076 64.9887 28.901 64.7412 29.5176ZM15.4045 24.461C15.2804 24.3368 15.1579 24.091 15.0345 23.9668C14.0479 22.981 12.6912 22.3635 11.2104 22.3635C10.4989 22.3661 9.79503 22.5091 9.13896 22.7842C8.48289 23.0594 7.88754 23.4612 7.38703 23.9668C7.2637 24.091 7.14036 24.3368 7.01703 24.461C6.8937 24.5843 6.77036 24.831 6.64703 24.9543C6.1537 25.8185 5.7837 26.681 5.7837 27.791C5.7837 28.4076 5.90703 29.0243 6.1537 29.5176C6.1537 29.6418 6.27703 29.8876 6.27703 30.0118C6.40036 30.1351 6.40036 30.3818 6.5237 30.5051C7.51036 32.1085 9.1137 33.0951 11.087 33.0951C13.0604 33.0951 14.787 31.9851 15.6504 30.5051C15.7745 30.3818 15.7745 30.1351 15.897 30.0118C16.0204 29.8876 16.0204 29.6418 16.0204 29.5176C16.267 29.0243 16.3912 28.4076 16.3912 27.791C16.3912 26.8043 16.1445 25.8185 15.5279 24.9543C15.5279 24.831 15.5279 24.7076 15.4045 24.461ZM15.1579 29.5176C15.0345 29.6418 15.0345 29.8876 14.9112 30.0118C14.7887 30.1351 14.6645 30.3818 14.5412 30.5051C14.1391 31.0412 13.6177 31.4764 13.0183 31.7761C12.4189 32.0758 11.758 32.2318 11.0879 32.2318C9.60786 32.2318 8.49786 31.6151 7.63453 30.5051C7.51119 30.3818 7.38786 30.1351 7.26453 30.0118C7.14036 29.8876 7.01786 29.6418 7.01786 29.5176C6.77119 29.0243 6.64786 28.4076 6.64786 27.791C6.64786 26.681 7.01786 25.8185 7.63453 24.9543C7.75786 24.831 7.8812 24.5843 8.12786 24.461C8.37536 24.3368 8.49786 24.091 8.74453 23.9668C9.41404 23.561 10.1825 23.3476 10.9654 23.3501C11.8287 23.3501 12.5679 23.5968 13.1854 23.9668C13.432 24.091 13.6787 24.2135 13.802 24.461C13.9254 24.5843 14.172 24.7068 14.2954 24.9543C14.912 25.6943 15.282 26.681 15.282 27.791C15.5287 28.4076 15.4045 28.901 15.1579 29.5176ZM36.0029 13.731H33.5362C33.2895 13.731 33.042 13.9768 33.042 14.2243C33.042 14.471 33.2887 14.7176 33.5362 14.7176H36.0029C36.2495 14.7176 36.4962 14.471 36.4962 14.2243C36.4962 13.9768 36.2504 13.731 36.0029 13.731ZM18.8579 13.731H16.3912C16.1454 13.731 15.8979 13.9768 15.8979 14.2243C15.8979 14.471 16.1445 14.7176 16.3912 14.7176H18.8579C19.1045 14.7176 19.352 14.471 19.352 14.2243C19.352 13.9768 19.1054 13.731 18.8579 13.731ZM45.7462 3.12263C44.6354 1.64263 42.7854 0.779297 40.9354 0.779297H10.7162C8.74286 0.779297 7.0162 1.64346 5.78286 3.24596L0.602862 10.1543C0.232862 10.6476 0.232862 11.1401 0.479528 11.6335C0.725362 12.1276 1.21953 12.3743 1.71286 12.3743H50.1862C50.8029 12.3743 51.2962 12.0043 51.5429 11.5101C51.7904 11.0168 51.6662 10.4001 51.4195 10.0301L45.7462 3.12263ZM1.95953 11.5101C1.71286 11.5101 1.58953 11.3868 1.4662 11.2635C1.34203 11.141 1.34203 10.8935 1.4662 10.7701L6.6462 3.86263C7.63203 2.50596 9.11286 1.76596 10.7162 1.76596H14.4162L11.9495 11.5101H1.95953ZM13.0595 11.5101L15.5279 1.7668H29.8362L31.0695 11.511H13.0612L13.0595 11.5101ZM31.932 11.5101L30.6979 1.7668H40.9354C41.3054 1.7668 41.6754 1.7668 41.922 1.89013L45.622 11.511H31.9329L31.932 11.5101ZM50.6795 11.2635C50.5562 11.3876 50.4329 11.5101 50.1862 11.5101H46.7329L43.1562 2.26013C43.8736 2.6123 44.5051 3.1175 45.0062 3.74013L50.557 10.7701C50.6804 10.8935 50.8029 11.0168 50.6795 11.2635Z" fill="#0F0F0F" stroke="#0F0F0F" stroke-width="0.3"/>
</svg>
