<svg width="83" height="33" viewBox="0 0 83 33" fill="none" xmlns="http://www.w3.org/2000/svg">
<path d="M43.1162 0.953811L9.11189 0.808594C7.07711 0.808594 5.33363 1.82598 4.17102 3.42425L1.11885 7.92946C0.82928 8.51033 0.683194 9.09207 0.973628 9.67294C1.26406 10.2538 1.8458 10.5451 2.4258 10.5451L16.6675 10.8356H16.958L65.2041 11.9973C65.4945 11.9973 65.7849 11.8521 65.7849 11.5616V11.1251L62.1519 8.07294C57.211 3.56859 50.2362 0.952941 43.1154 0.952941L43.1162 0.953811ZM16.6684 9.81729L2.71798 9.52685C2.42754 9.52685 2.28145 9.23555 2.28145 9.23555C2.28145 9.09033 2.13711 8.94512 2.28145 8.65468L5.33363 4.15033C6.20493 2.84164 7.65885 2.11555 9.25711 2.11555H19.7197L16.6684 9.81729ZM17.831 9.96251L20.8823 2.11555L36.2858 2.26077L37.7388 10.5442L17.831 9.96251ZM38.7562 10.399L37.3049 2.11642H42.9719C49.8015 2.11642 56.4858 4.58685 61.718 8.94686L64.0432 10.9816L38.758 10.4008V10.3999L38.7562 10.399ZM80.4641 22.7521C79.4467 21.7347 78.138 21.1529 76.5397 21.1529C75.0875 21.1529 73.6336 21.7347 72.6162 22.7521C72.3249 23.0425 72.0345 23.479 71.7441 23.9138C71.1705 24.7746 70.8644 25.7859 70.8644 26.8203C70.8644 27.8547 71.1705 28.866 71.7441 29.7269C72.0345 30.1634 72.3249 30.4538 72.6162 30.8895C73.6336 31.9069 75.0867 32.4877 76.5397 32.4877C78.138 32.4877 79.4467 31.9069 80.4641 30.8895C80.7545 30.599 81.0449 30.1625 81.3354 29.7269C81.7719 28.8556 82.2067 27.9834 82.2067 26.8208C82.2092 25.7871 81.9061 24.7757 81.3354 23.9138C81.0449 23.4782 80.7545 23.0425 80.4641 22.7521ZM80.0275 29.5825C79.591 30.0182 79.1554 30.4538 78.5754 30.7442C77.9928 31.0347 77.2667 31.326 76.5406 31.326C75.8128 31.326 75.0867 31.1799 74.5058 30.7442C73.9232 30.4538 73.4884 30.0173 73.0519 29.5825C72.3947 28.7559 72.0362 27.7315 72.0345 26.6755C72.0345 25.5129 72.471 24.6408 73.0519 23.7695C73.4884 23.3329 73.9241 22.8973 74.5049 22.6069C75.0858 22.3164 75.8128 22.1703 76.5397 22.1703C77.2667 22.1703 77.8475 22.3156 78.5745 22.6069C79.1554 22.8973 79.5919 23.3338 80.0267 23.7695C80.7545 24.4956 81.0449 25.5138 81.0449 26.6755C81.0432 27.7315 80.6847 28.7559 80.0275 29.5825ZM49.6562 14.4695H46.7484C46.5978 14.48 46.4561 14.5446 46.3494 14.6513C46.2427 14.758 46.1781 14.8998 46.1675 15.0503C46.1779 15.2011 46.2424 15.343 46.3491 15.4499C46.4559 15.5568 46.5977 15.6215 46.7484 15.6321H49.6554C49.8061 15.6215 49.9479 15.5568 50.0547 15.4499C50.1614 15.343 50.2259 15.2011 50.2362 15.0503C50.2257 14.8998 50.1611 14.758 50.0544 14.6513C49.9477 14.5446 49.8068 14.48 49.6562 14.4695ZM27.8588 14.4695H24.9528C24.802 14.4798 24.6601 14.5443 24.5532 14.651C24.4463 14.7578 24.3816 14.8996 24.371 15.0503C24.3814 15.2012 24.446 15.3432 24.5529 15.4502C24.6599 15.5571 24.8019 15.6217 24.9528 15.6321H27.8588C28.0096 15.6215 28.1514 15.5568 28.2581 15.4499C28.3649 15.343 28.4294 15.2011 28.4397 15.0503C28.4292 14.8998 28.3646 14.758 28.2579 14.6513C28.1511 14.5446 28.0094 14.48 27.8588 14.4695ZM20.1571 22.7521C19.1397 21.7347 17.8328 21.1529 16.2336 21.1529C14.7815 21.1529 13.3275 21.7347 12.3102 22.7521C12.0188 23.0425 11.7284 23.479 11.438 23.9138C10.8672 24.7756 10.564 25.7871 10.5667 26.8208C10.5667 27.8382 10.8571 28.8556 11.438 29.7269C11.7284 30.1634 12.0188 30.4538 12.3102 30.8895C13.3275 31.9069 14.7797 32.4877 16.2336 32.4877C17.8319 32.4877 19.1406 31.9069 20.158 30.8895C20.4484 30.599 20.7388 30.1625 21.0293 29.7269C21.4658 28.8556 21.9015 27.9834 21.9015 26.8208C21.9015 25.8034 21.6102 24.786 21.0293 23.9138C20.7388 23.4782 20.4475 23.0425 20.1571 22.7521ZM19.5762 29.5825C19.1406 30.0182 18.7049 30.4538 18.1241 30.7442C17.5423 31.0347 16.8154 31.326 16.0893 31.326C15.3641 31.326 14.6371 31.1799 14.0545 30.7442C13.4736 30.4538 13.0371 30.0173 12.6023 29.5825C11.9449 28.7561 11.5864 27.7316 11.5849 26.6755C11.5849 25.5129 12.0206 24.6408 12.6023 23.7695C13.038 23.3329 13.4736 22.8973 14.0545 22.6069C14.6362 22.3164 15.3632 22.1703 16.0893 22.1703C16.8162 22.1703 17.398 22.3156 18.1241 22.6069C18.7049 22.8973 19.1415 23.3338 19.5762 23.7695C20.3032 24.4956 20.5936 25.5138 20.5936 26.6755C20.7388 27.8382 20.3032 28.8556 19.5762 29.5825Z" fill="#0F0F0F" stroke="#0F0F0F" stroke-width="0.3"/>
</svg>
