<svg width="79" height="34" viewBox="0 0 79 34" fill="none" xmlns="http://www.w3.org/2000/svg">
<path d="M34.4329 16.0784H31.7767C31.5112 16.0784 31.2456 16.3473 31.2456 16.6154C31.2456 16.8844 31.5112 17.1533 31.7767 17.1533H34.432C34.6984 17.1533 34.9639 16.8844 34.9639 16.6154C34.9639 16.3473 34.6984 16.0784 34.4329 16.0784ZM69.3529 25.7542C69.2201 25.6197 69.0873 25.3507 68.9546 25.2171C68.0252 24.0069 66.5639 23.2001 64.9716 23.2001C63.3784 23.2001 61.9163 24.0069 60.9886 25.2171C60.855 25.3507 60.7222 25.6205 60.5886 25.7542C60.4558 25.8878 60.4567 26.1576 60.3239 26.292C60.0584 26.9644 59.7929 27.635 59.7929 28.4418C59.7929 29.2495 60.0584 30.0546 60.3239 30.7269C60.4567 30.8614 60.4567 31.1303 60.5895 31.2639C60.7214 31.3984 60.855 31.6673 60.9878 31.8018C61.9171 33.0112 63.3776 33.6827 64.9707 33.6827C66.5648 33.6827 68.0252 32.8767 68.9546 31.8018C69.119 31.6483 69.254 31.466 69.3529 31.2639C69.4856 31.1295 69.4856 30.8605 69.6184 30.7269C69.8839 30.0546 70.1495 29.2486 70.1495 28.4418C70.1495 27.6359 70.0167 26.9635 69.6184 26.292C69.6184 26.0231 69.4856 25.8886 69.3529 25.7542ZM68.4235 30.7269C68.2907 30.8614 68.158 31.1303 68.0252 31.2639L67.4941 31.8018C66.8303 32.3388 65.9001 32.6078 64.9716 32.6078C64.0422 32.6078 63.2448 32.3388 62.4482 31.8018C62.1827 31.6673 62.0499 31.5329 61.9171 31.2639C61.7844 31.1295 61.6516 30.9959 61.5188 30.7269C61.1205 30.0546 60.855 29.2486 60.855 28.4418C60.855 27.6359 61.1205 26.9635 61.5188 26.292C61.6516 26.1567 61.7844 25.8886 61.9171 25.7542L62.4482 25.2171C63.112 24.6793 64.0414 24.2759 64.9716 24.2759C65.901 24.2759 66.8303 24.6793 67.4941 25.2163C67.6261 25.3507 67.8916 25.4852 68.0252 25.7542C68.158 25.8878 68.2907 26.0231 68.4235 26.292C68.8218 26.9644 69.0873 27.635 69.0873 28.4418C69.0873 29.2495 68.8218 30.0546 68.4235 30.7269ZM14.2507 25.7542C14.118 25.6197 13.9852 25.3507 13.8524 25.2171C12.9222 24.0069 11.461 23.2001 9.86862 23.2001C8.27542 23.2001 6.815 24.0069 5.88564 25.2171C5.75202 25.3507 5.61925 25.6205 5.48649 25.7542C5.35372 25.8878 5.35372 26.1576 5.22095 26.292C4.95542 26.9644 4.68989 27.635 4.68989 28.4418C4.68989 29.2495 4.95542 30.0546 5.22095 30.7269C5.35457 30.8614 5.35457 31.1303 5.48649 31.2639C5.61925 31.3984 5.75202 31.6673 5.88479 31.8018C6.815 33.0112 8.27627 33.6827 9.86862 33.6827C11.4618 33.6827 12.9222 32.8767 13.8516 31.8018C13.9844 31.6673 14.118 31.5329 14.2507 31.2639C14.3835 31.1295 14.3835 30.8605 14.5163 30.7269C14.7818 30.0546 15.0473 29.2486 15.0473 28.4418C15.0473 27.6359 14.9137 26.9635 14.5163 26.292C14.3835 26.0231 14.3835 25.8886 14.2507 25.7542ZM13.3214 30.7269C13.1886 30.8614 13.0558 31.1303 12.9222 31.2639L12.3912 31.8018C11.7273 32.3388 10.798 32.6078 9.86862 32.6078C8.93925 32.6078 8.14266 32.3388 7.34606 31.8018C7.10784 31.6955 6.91829 31.5035 6.815 31.2639C6.65039 31.1107 6.51512 30.9287 6.41585 30.7269C6.01755 30.0546 5.75202 29.2486 5.75202 28.4418C5.75202 27.6359 6.01755 26.9635 6.41585 26.292C6.54947 26.1567 6.68223 25.8886 6.815 25.7542L7.34606 25.2171C8.00989 24.6793 8.93925 24.2759 9.86862 24.2759C10.798 24.2759 11.7282 24.6793 12.3912 25.2163C12.5239 25.3507 12.7903 25.4852 12.9222 25.7542C13.055 25.8878 13.1878 26.0231 13.3214 26.292C13.7197 26.9644 13.9852 27.635 13.9852 28.4418C13.9852 29.2495 13.7197 30.0546 13.3214 30.7269ZM13.3205 16.0784H10.6652C10.3988 16.0784 10.1333 16.3473 10.1333 16.6154C10.1333 16.8844 10.3988 17.1533 10.6644 17.1533H13.3197C13.5861 17.1533 13.8516 16.8844 13.8516 16.6154C13.8516 16.3473 13.5861 16.0784 13.3205 16.0784ZM77.5861 15.9499C77.4486 15.9476 77.3133 15.9842 77.1957 16.0554C77.0781 16.1266 76.983 16.2296 76.9214 16.3525L76.1248 20.5193C76.1219 20.6573 76.1576 20.7934 76.228 20.9123C76.2984 21.0311 76.4006 21.1278 76.5231 21.1916H76.6558C76.9214 21.1916 77.0541 21.0571 77.1869 20.789L77.9835 16.6222C77.9865 16.4843 77.9509 16.3482 77.8806 16.2294C77.8104 16.1106 77.7084 16.0138 77.5861 15.9499ZM48.7724 5.05883C46.6473 2.50564 43.4618 1.02734 40.2746 1.02734H8.80478C5.48564 1.02734 2.56393 2.77458 0.837976 5.73117C0.381064 6.52907 0.140686 7.43256 0.140686 8.35203C0.140686 9.27149 0.381064 10.175 0.837976 10.9729C1.76734 12.5856 3.4933 13.6605 5.35202 13.6605H51.8261C52.6227 13.6605 53.1537 13.2571 53.552 12.5856C53.8176 11.9133 53.8175 11.1073 53.2865 10.5695L48.7724 5.05883ZM5.35287 12.5848C3.89244 12.5848 2.43117 11.7788 1.76819 10.4342C0.971594 9.09117 0.971594 7.47756 1.76819 6.2682C3.22861 3.715 5.88478 2.10139 8.80564 2.10139H10.9299L9.07117 12.4503H5.35202L5.35287 12.5848ZM9.99968 12.5848L11.8601 2.37117V2.10224H26.7316L28.192 12.5848H10.0005H9.99968ZM29.1205 12.5848L27.6601 2.10309H40.2746C41.735 2.10309 43.0627 2.37202 44.3912 2.90905L47.4448 12.4512H29.1214V12.5856L29.1205 12.5848ZM52.6227 12.1814C52.4899 12.4503 52.2244 12.7193 51.8261 12.7193H48.3741L45.5844 3.84947C46.5146 4.38734 47.3103 5.05883 47.975 6.00011L52.489 11.3754C52.7546 11.5099 52.7554 11.7788 52.6227 12.1814Z" fill="#0F0F0F"/>
<path d="M48.7724 5.05883C46.6473 2.50564 43.4618 1.02734 40.2746 1.02734H8.80478C5.48564 1.02734 2.56393 2.77458 0.837976 5.73117C0.381064 6.52907 0.140686 7.43256 0.140686 8.35203C0.140686 9.27149 0.381064 10.175 0.837976 10.9729C1.76734 12.5856 3.4933 13.6605 5.35202 13.6605H51.8261C52.6227 13.6605 53.1537 13.2571 53.552 12.5856C53.8176 11.9133 53.8175 11.1073 53.2865 10.5695L48.7724 5.05883ZM48.7724 5.05883L48.7716 5.05968M34.4329 16.0784H31.7767C31.5112 16.0784 31.2456 16.3473 31.2456 16.6154C31.2456 16.8844 31.5112 17.1533 31.7767 17.1533H34.432C34.6984 17.1533 34.9639 16.8844 34.9639 16.6154C34.9639 16.3473 34.6984 16.0784 34.4329 16.0784ZM69.3529 25.7542C69.2201 25.6197 69.0873 25.3507 68.9546 25.2171C68.0252 24.0069 66.5639 23.2001 64.9716 23.2001C63.3784 23.2001 61.9163 24.0069 60.9886 25.2171C60.855 25.3507 60.7222 25.6205 60.5886 25.7542C60.4558 25.8878 60.4567 26.1576 60.3239 26.292C60.0584 26.9644 59.7929 27.635 59.7929 28.4418C59.7929 29.2495 60.0584 30.0546 60.3239 30.7269C60.4567 30.8614 60.4567 31.1303 60.5895 31.2639C60.7214 31.3984 60.855 31.6673 60.9878 31.8018C61.9171 33.0112 63.3776 33.6827 64.9707 33.6827C66.5648 33.6827 68.0252 32.8767 68.9546 31.8018C69.119 31.6483 69.254 31.466 69.3529 31.2639C69.4856 31.1295 69.4856 30.8605 69.6184 30.7269C69.8839 30.0546 70.1495 29.2486 70.1495 28.4418C70.1495 27.6359 70.0167 26.9635 69.6184 26.292C69.6184 26.0231 69.4856 25.8886 69.3529 25.7542ZM68.4235 30.7269C68.2907 30.8614 68.158 31.1303 68.0252 31.2639L67.4941 31.8018C66.8303 32.3388 65.9001 32.6078 64.9716 32.6078C64.0422 32.6078 63.2448 32.3388 62.4482 31.8018C62.1827 31.6673 62.0499 31.5329 61.9171 31.2639C61.7844 31.1295 61.6516 30.9959 61.5188 30.7269C61.1205 30.0546 60.855 29.2486 60.855 28.4418C60.855 27.6359 61.1205 26.9635 61.5188 26.292C61.6516 26.1567 61.7844 25.8886 61.9171 25.7542L62.4482 25.2171C63.112 24.6793 64.0414 24.2759 64.9716 24.2759C65.901 24.2759 66.8303 24.6793 67.4941 25.2163C67.6261 25.3507 67.8916 25.4852 68.0252 25.7542C68.158 25.8878 68.2907 26.0231 68.4235 26.292C68.8218 26.9644 69.0873 27.635 69.0873 28.4418C69.0873 29.2495 68.8218 30.0546 68.4235 30.7269ZM14.2507 25.7542C14.118 25.6197 13.9852 25.3507 13.8524 25.2171C12.9222 24.0069 11.461 23.2001 9.86861 23.2001C8.27542 23.2001 6.815 24.0069 5.88564 25.2171C5.75202 25.3507 5.61925 25.6205 5.48649 25.7542C5.35372 25.8878 5.35372 26.1576 5.22095 26.292C4.95542 26.9644 4.68989 27.635 4.68989 28.4418C4.68989 29.2495 4.95542 30.0546 5.22095 30.7269C5.35457 30.8614 5.35457 31.1303 5.48649 31.2639C5.61925 31.3984 5.75202 31.6673 5.88479 31.8018C6.815 33.0112 8.27627 33.6827 9.86861 33.6827C11.4618 33.6827 12.9222 32.8767 13.8516 31.8018C13.9844 31.6673 14.118 31.5329 14.2507 31.2639C14.3835 31.1295 14.3835 30.8605 14.5163 30.7269C14.7818 30.0546 15.0473 29.2486 15.0473 28.4418C15.0473 27.6359 14.9137 26.9635 14.5163 26.292C14.3835 26.0231 14.3835 25.8886 14.2507 25.7542ZM13.3214 30.7269C13.1886 30.8614 13.0558 31.1303 12.9222 31.2639L12.3912 31.8018C11.7273 32.3388 10.798 32.6078 9.86861 32.6078C8.93925 32.6078 8.14266 32.3388 7.34606 31.8018C7.10785 31.6955 6.91829 31.5035 6.815 31.2639C6.65039 31.1107 6.51512 30.9287 6.41585 30.7269C6.01755 30.0546 5.75202 29.2486 5.75202 28.4418C5.75202 27.6359 6.01755 26.9635 6.41585 26.292C6.54947 26.1567 6.68223 25.8886 6.815 25.7542L7.34606 25.2171C8.00989 24.6793 8.93925 24.2759 9.86861 24.2759C10.798 24.2759 11.7282 24.6793 12.3912 25.2163C12.5239 25.3507 12.7903 25.4852 12.9222 25.7542C13.055 25.8878 13.1878 26.0231 13.3214 26.292C13.7197 26.9644 13.9852 27.635 13.9852 28.4418C13.9852 29.2495 13.7197 30.0546 13.3214 30.7269ZM13.3205 16.0784H10.6652C10.3988 16.0784 10.1333 16.3473 10.1333 16.6154C10.1333 16.8844 10.3988 17.1533 10.6644 17.1533H13.3197C13.5861 17.1533 13.8516 16.8844 13.8516 16.6154C13.8516 16.3473 13.5861 16.0784 13.3205 16.0784ZM77.5861 15.9499C77.4486 15.9476 77.3133 15.9842 77.1957 16.0554C77.0781 16.1266 76.983 16.2296 76.9214 16.3525L76.1248 20.5193C76.1219 20.6573 76.1576 20.7934 76.228 20.9123C76.2984 21.0311 76.4006 21.1278 76.5231 21.1916H76.6558C76.9214 21.1916 77.0541 21.0571 77.1869 20.789L77.9835 16.6222C77.9865 16.4843 77.9509 16.3482 77.8806 16.2294C77.8104 16.1106 77.7084 16.0138 77.5861 15.9499ZM5.35287 12.5848C3.89244 12.5848 2.43117 11.7788 1.76819 10.4342C0.971594 9.09117 0.971594 7.47756 1.76819 6.26819C3.22861 3.715 5.88478 2.10139 8.80564 2.10139H10.9299L9.07117 12.4503H5.35202L5.35287 12.5848ZM9.99968 12.5848L11.8601 2.37117V2.10224H26.7316L28.192 12.5848H10.0005H9.99968ZM29.1205 12.5848L27.6601 2.10309H40.2746C41.735 2.10309 43.0627 2.37202 44.3912 2.90905L47.4448 12.4512H29.1214V12.5856L29.1205 12.5848ZM52.6227 12.1814C52.4899 12.4503 52.2244 12.7193 51.8261 12.7193H48.3741L45.5844 3.84947C46.5146 4.38734 47.3103 5.05883 47.975 6.00011L52.489 11.3754C52.7546 11.5099 52.7554 11.7788 52.6227 12.1814Z" stroke="#0F0F0F" stroke-width="0.3"/>
</svg>
