<svg width="83" height="33" viewBox="0 0 83 33" fill="none" xmlns="http://www.w3.org/2000/svg">
<path d="M43.1161 0.953811L9.11177 0.808594C7.07699 0.808594 5.33351 1.82598 4.1709 3.42425L1.11872 7.92946C0.829158 8.51033 0.683072 9.09207 0.973506 9.67294C1.26394 10.2538 1.84568 10.5451 2.42568 10.5451L16.6674 10.8356H16.9579L65.2039 11.9973C65.4944 11.9973 65.7848 11.8521 65.7848 11.5616V11.1251L62.1518 8.07294C57.2109 3.56859 50.2361 0.952941 43.1152 0.952941L43.1161 0.953811ZM16.6683 9.81729L2.71785 9.52685C2.42742 9.52685 2.28133 9.23555 2.28133 9.23555C2.28133 9.09033 2.13698 8.94512 2.28133 8.65468L5.33351 4.15033C6.20481 2.84164 7.65872 2.11555 9.25698 2.11555H19.7196L16.6683 9.81729ZM17.8309 9.96251L20.8822 2.11555L36.2857 2.26077L37.7387 10.5442L17.8309 9.96251ZM38.7561 10.399L37.3048 2.11642H42.9718C49.8013 2.11642 56.4857 4.58685 61.7179 8.94686L64.0431 10.9816L38.7579 10.4008V10.3999L38.7561 10.399ZM80.4639 22.7521C79.4465 21.7347 78.1379 21.1529 76.5396 21.1529C75.0874 21.1529 73.6335 21.7347 72.6161 22.7521C72.3248 23.0425 72.0344 23.479 71.7439 23.9138C71.1704 24.7746 70.8643 25.7859 70.8643 26.8203C70.8643 27.8547 71.1704 28.866 71.7439 29.7269C72.0344 30.1634 72.3248 30.4538 72.6161 30.8895C73.6335 31.9069 75.0865 32.4877 76.5396 32.4877C78.1379 32.4877 79.4465 31.9069 80.4639 30.8895C80.7544 30.599 81.0448 30.1625 81.3352 29.7269C81.7718 28.8556 82.2066 27.9834 82.2066 26.8208C82.2091 25.7871 81.906 24.7757 81.3352 23.9138C81.0448 23.4782 80.7544 23.0425 80.4639 22.7521ZM80.0274 29.5825C79.5909 30.0182 79.1553 30.4538 78.5752 30.7442C77.9926 31.0347 77.2665 31.326 76.5405 31.326C75.8126 31.326 75.0866 31.1799 74.5057 30.7442C73.9231 30.4538 73.4883 30.0173 73.0518 29.5825C72.3946 28.7559 72.0361 27.7315 72.0344 26.6755C72.0344 25.5129 72.4709 24.6408 73.0518 23.7695C73.4883 23.3329 73.9239 22.8973 74.5048 22.6069C75.0857 22.3164 75.8126 22.1703 76.5396 22.1703C77.2665 22.1703 77.8474 22.3156 78.5744 22.6069C79.1553 22.8973 79.5918 23.3338 80.0266 23.7695C80.7544 24.4956 81.0448 25.5138 81.0448 26.6755C81.0431 27.7315 80.6846 28.7559 80.0274 29.5825ZM49.6561 14.4695H46.7483C46.5977 14.48 46.456 14.5446 46.3493 14.6513C46.2425 14.758 46.178 14.8998 46.1674 15.0503C46.1778 15.2011 46.2422 15.343 46.349 15.4499C46.4558 15.5568 46.5976 15.6215 46.7483 15.6321H49.6552C49.806 15.6215 49.9478 15.5568 50.0545 15.4499C50.1613 15.343 50.2258 15.2011 50.2361 15.0503C50.2256 14.8998 50.161 14.758 50.0543 14.6513C49.9475 14.5446 49.8067 14.48 49.6561 14.4695ZM27.8587 14.4695H24.9526C24.8019 14.4798 24.66 14.5443 24.5531 14.651C24.4462 14.7578 24.3815 14.8996 24.3709 15.0503C24.3813 15.2012 24.4459 15.3432 24.5528 15.4502C24.6597 15.5571 24.8018 15.6217 24.9526 15.6321H27.8587C28.0094 15.6215 28.1513 15.5568 28.258 15.4499C28.3648 15.343 28.4293 15.2011 28.4396 15.0503C28.4291 14.8998 28.3645 14.758 28.2577 14.6513C28.151 14.5446 28.0093 14.48 27.8587 14.4695ZM20.157 22.7521C19.1396 21.7347 17.8326 21.1529 16.2335 21.1529C14.7813 21.1529 13.3274 21.7347 12.31 22.7521C12.0187 23.0425 11.7283 23.479 11.4379 23.9138C10.867 24.7756 10.5639 25.7871 10.5666 26.8208C10.5666 27.8382 10.857 28.8556 11.4379 29.7269C11.7283 30.1634 12.0187 30.4538 12.31 30.8895C13.3274 31.9069 14.7796 32.4877 16.2335 32.4877C17.8318 32.4877 19.1405 31.9069 20.1579 30.8895C20.4483 30.599 20.7387 30.1625 21.0292 29.7269C21.4657 28.8556 21.9013 27.9834 21.9013 26.8208C21.9013 25.8034 21.61 24.786 21.0292 23.9138C20.7387 23.4782 20.4474 23.0425 20.157 22.7521ZM19.5761 29.5825C19.1405 30.0182 18.7048 30.4538 18.1239 30.7442C17.5422 31.0347 16.8152 31.326 16.0892 31.326C15.3639 31.326 14.637 31.1799 14.0544 30.7442C13.4735 30.4538 13.037 30.0173 12.6022 29.5825C11.9448 28.7561 11.5863 27.7316 11.5848 26.6755C11.5848 25.5129 12.0205 24.6408 12.6022 23.7695C13.0379 23.3329 13.4735 22.8973 14.0544 22.6069C14.6361 22.3164 15.3631 22.1703 16.0892 22.1703C16.8161 22.1703 17.3979 22.3156 18.1239 22.6069C18.7048 22.8973 19.1413 23.3338 19.5761 23.7695C20.3031 24.4956 20.5935 25.5138 20.5935 26.6755C20.7387 27.8382 20.3031 28.8556 19.5761 29.5825Z" fill="#0F0F0F" stroke="#0F0F0F" stroke-width="0.3"/>
</svg>
