<svg width="72" height="32" viewBox="0 0 72 32" fill="none" xmlns="http://www.w3.org/2000/svg">
<path d="M32.6513 0.693359H20.3074C17.2921 0.693359 14.2785 1.98613 12.1253 4.2823C11.6336 4.78358 11.3026 5.42013 11.1747 6.11055C11.0467 6.80096 11.1276 7.51385 11.407 8.15804C11.9815 9.44995 13.1295 10.3112 14.5644 10.3112L54.7576 11.6048C55.0453 11.6048 55.3321 11.461 55.3321 11.1742V10.7427L51.7432 7.72825C46.5755 3.27804 39.6853 0.693359 32.6513 0.693359ZM14.5644 9.30613C13.5602 9.30613 12.6981 8.73166 12.4113 7.72655C11.9815 6.86527 12.2683 5.86017 12.9857 4.99889C14.8521 2.98953 17.5789 1.84144 20.3066 1.84144H30.6419L33.5125 9.87889L14.5644 9.30527V9.30613ZM34.6606 10.0236L31.79 1.8423H32.6513C39.3985 1.8423 46.001 4.2823 51.1687 8.58868L53.4657 10.598L34.6606 10.0236ZM69.5432 22.2253C68.5389 21.2202 67.247 20.6457 65.6674 20.6457C64.0878 20.6457 62.7968 21.2202 61.7925 22.2253C61.5057 22.5121 61.2181 22.9427 60.9312 23.3734C60.3674 24.2244 60.0677 25.2231 60.07 26.244C60.0676 27.2649 60.3673 28.2637 60.9312 29.1146C61.2181 29.5453 61.5057 29.8321 61.7925 30.2636C62.7968 31.2678 64.2325 31.8423 65.6674 31.8423C67.1032 31.8423 68.5389 31.2687 69.5432 30.2627C69.8308 29.9759 70.1176 29.5453 70.4044 29.1146C70.8359 28.2534 71.2657 27.3921 71.2657 26.244C71.2682 25.2231 70.9686 24.2243 70.4044 23.3734C70.1176 22.9427 69.8308 22.5129 69.5432 22.2253ZM68.9695 28.9717C68.5389 29.4014 68.1083 29.8329 67.5338 30.1206C66.9602 30.4074 66.2419 30.6942 65.5244 30.6942C64.807 30.6942 64.0896 30.5512 63.5151 30.1197C62.9406 29.8329 62.51 29.4023 62.0793 28.9717C61.4304 28.1554 61.0765 27.1438 61.0751 26.101C61.0751 24.9521 61.5057 24.0917 62.0793 23.2304C62.51 22.7997 62.9406 22.3691 63.5151 22.0814C64.0887 21.7946 64.8061 21.6517 65.5244 21.6517C66.2427 21.6517 66.8155 21.7946 67.5338 22.0814C68.1083 22.3691 68.5389 22.7997 68.9695 23.2304C69.6878 23.9478 69.9747 24.9529 69.9747 26.101C70.1176 27.25 69.6878 28.2542 68.9695 28.9717ZM38.9695 14.0431H36.0989C35.95 14.0535 35.8098 14.1173 35.7042 14.2229C35.5986 14.3285 35.5348 14.4687 35.5244 14.6176C35.535 14.7664 35.5989 14.9064 35.7044 15.0118C35.81 15.1172 35.9501 15.1809 36.0989 15.1912H38.9695C39.1184 15.1809 39.2585 15.1172 39.364 15.0118C39.4696 14.9064 39.5335 14.7664 39.544 14.6176C39.544 14.33 39.401 14.0431 38.9695 14.0431ZM17.5815 14.0431H14.7108C14.5619 14.0535 14.4217 14.1173 14.3161 14.2229C14.2105 14.3285 14.1467 14.4687 14.1364 14.6176C14.1469 14.7664 14.2108 14.9064 14.3164 15.0118C14.4219 15.1172 14.562 15.1809 14.7108 15.1912H17.5815C17.7301 15.1807 17.87 15.1169 17.9754 15.0115C18.0808 14.9062 18.1446 14.7663 18.1551 14.6176C18.1448 14.4688 18.0811 14.3287 17.9757 14.2232C17.8703 14.1176 17.7303 14.0537 17.5815 14.0431ZM9.9721 22.2253C8.96785 21.2202 7.67593 20.6457 6.09636 20.6457C4.66061 20.6457 3.22572 21.2202 2.22061 22.2253C1.93381 22.5121 1.64615 22.9427 1.35934 23.3734C0.795443 24.2244 0.495788 25.2231 0.498061 26.244C0.495687 27.2649 0.79535 28.2637 1.35934 29.1146C1.64615 29.5453 1.93381 29.8321 2.22061 30.2636C3.22572 31.2678 4.66061 31.8423 6.09636 31.8423C7.67593 31.8423 8.967 31.2687 9.9721 30.2627C10.2598 29.9759 10.5466 29.5453 10.8334 29.1146C11.2649 28.2534 11.6947 27.3921 11.6947 26.244C11.697 25.2231 11.3974 24.2243 10.8334 23.3734C10.5466 22.9427 10.2598 22.5129 9.9721 22.2253ZM9.39849 28.9717C8.967 29.4014 8.53721 29.8329 7.96274 30.1206C7.38912 30.4074 6.67083 30.6942 5.95338 30.6942C5.23593 30.6942 4.51763 30.5512 3.94402 30.1197C3.36955 29.8329 2.93976 29.4023 2.50827 28.9717C1.85935 28.1554 1.50544 27.1438 1.50402 26.101C1.50402 24.9521 1.93381 24.0917 2.50827 23.2304C2.93891 22.7997 3.36955 22.3691 3.94402 22.0814C4.51763 21.7946 5.23593 21.6517 5.95253 21.6517C6.67083 21.6517 7.24615 21.7946 7.96274 22.0814C8.53721 22.3691 8.96785 22.7997 9.39849 23.2304C10.1159 23.9478 10.4027 24.9529 10.4027 26.101C10.5466 27.25 10.1159 28.2542 9.39849 28.9717Z" fill="#0F0F0F" stroke="#0F0F0F" stroke-width="0.3"/>
</svg>
