<svg width="59" height="34" viewBox="0 0 59 34" fill="none" xmlns="http://www.w3.org/2000/svg">
<path d="M53.8658 24.4775C51.3983 24.4775 49.2825 26.475 49.2825 29.0608C49.2825 29.295 49.2825 29.53 49.4008 29.765C49.4008 29.8817 49.4008 30.1175 49.5183 30.235C49.5183 30.3525 49.6358 30.5875 49.6358 30.705C50.2233 32.4683 51.9858 33.6425 53.8658 33.6425C55.8633 33.6425 57.5075 32.3508 58.0958 30.705C58.0958 30.5883 58.2125 30.3525 58.2125 30.235C58.2125 30.1175 58.33 29.8825 58.33 29.765C58.33 29.53 58.4475 29.295 58.4475 29.06C58.4475 26.475 56.4508 24.4775 53.8658 24.4775ZM57.5075 29.6475C57.5075 29.765 57.3908 30.0008 57.3908 30.1183C57.3908 30.235 57.2725 30.4708 57.155 30.5883C56.5683 31.7633 55.3933 32.5858 53.865 32.5858C52.4567 32.5858 51.1633 31.7633 50.5758 30.5883C50.4583 30.4708 50.4583 30.2358 50.3408 30.1183C50.3408 30.0008 50.2233 29.765 50.2233 29.6475C50.2233 29.4125 50.1067 29.1775 50.1067 28.9433C50.1067 26.9458 51.7508 25.3008 53.7483 25.3008C55.745 25.3008 57.39 26.9458 57.39 28.9425C57.5075 29.1783 57.5075 29.4133 57.5075 29.6475ZM5.10584 24.4775C2.63834 24.4775 0.523346 26.475 0.523346 29.0608C0.523346 29.295 0.523345 29.53 0.640845 29.765C0.640845 29.8817 0.640846 30.1175 0.758346 30.235C0.758346 30.3525 0.875845 30.5875 0.875845 30.705C1.46418 32.4683 3.22584 33.6425 5.10584 33.6425C7.10251 33.6425 8.74751 32.3508 9.33501 30.705C9.33501 30.5883 9.45251 30.3525 9.45251 30.235C9.45251 30.1175 9.57001 29.8825 9.57001 29.765C9.57001 29.53 9.68751 29.295 9.68751 29.06C9.68751 26.475 7.69084 24.4775 5.10584 24.4775ZM8.74751 29.6475C8.74751 29.765 8.63085 30.0008 8.63085 30.1183C8.63085 30.235 8.51251 30.4708 8.39501 30.5883C7.80834 31.7633 6.63251 32.5858 5.10584 32.5858C3.69584 32.5858 2.40334 31.7633 1.81584 30.5883C1.69834 30.4708 1.69835 30.2358 1.58085 30.1183C1.58085 30.0008 1.46335 29.765 1.46335 29.6475C1.46335 29.4125 1.34585 29.1775 1.34585 28.9433C1.34585 26.9458 2.99084 25.3008 4.98751 25.3008C6.98501 25.3008 8.63001 26.9458 8.63001 28.9425C8.74834 29.1783 8.74751 29.4133 8.74751 29.6475ZM25.5483 14.2533L46.1092 14.1367C46.5792 14.1367 47.0492 13.7833 47.2842 13.3142C47.5192 12.8442 47.4017 12.2558 47.0492 11.9033L43.7592 8.14418C39.295 2.97418 32.95 0.154175 26.135 0.154175H24.3733C23.9025 0.154175 23.4333 0.624175 23.4333 1.09417V12.2567C23.4311 12.5191 23.482 12.7793 23.5828 13.0216C23.6836 13.2638 23.8323 13.4833 24.02 13.6667C24.6075 14.0192 25.0783 14.2533 25.5483 14.2533ZM24.49 0.976675H26.2525C32.715 0.976675 38.9417 3.79667 43.1725 8.73084L46.4617 12.4908C46.5792 12.7258 46.5792 12.8433 46.5792 12.9608C46.5792 12.9608 46.4625 13.1967 46.2267 13.1967L25.6658 13.3133C25.3125 13.3133 25.0783 13.1967 24.8433 12.9608C24.6083 12.7258 24.4908 12.4908 24.4908 12.1392L24.49 0.976675ZM28.6033 17.1875H26.2533C26.0183 17.1875 25.7833 17.4225 25.7833 17.6567C25.7833 17.8917 26.0183 18.1267 26.2533 18.1267H28.6033C28.8383 18.1267 29.0733 17.8917 29.0733 17.6567C29.0733 17.4217 28.8383 17.1875 28.6033 17.1875Z" fill="#0F0F0F" stroke="#0F0F0F" stroke-width="0.3"/>
</svg>
