<svg width="74" height="33" viewBox="0 0 74 33" fill="none" xmlns="http://www.w3.org/2000/svg">
<path d="M71.9822 22.3282C70.9855 21.3315 69.703 20.7615 68.1371 20.7615C66.7122 20.7615 65.2888 21.3315 64.2921 22.3282C64.008 22.6132 63.7221 23.0399 63.4371 23.4674C62.8751 24.3108 62.5752 25.3017 62.5752 26.3153C62.5752 27.3288 62.8751 28.3197 63.4371 29.1632C63.7221 29.5907 64.0071 29.8757 64.2921 30.3024C65.2888 31.299 66.713 31.869 68.1371 31.869C69.703 31.869 70.9855 31.299 71.9822 30.3024C72.2663 30.0174 72.5513 29.5907 72.8363 29.1632C73.263 28.309 73.6905 27.4549 73.6905 26.3157C73.6929 25.3028 73.3957 24.3118 72.8363 23.4674C72.5513 23.0399 72.2663 22.7557 71.9822 22.3282ZM71.4121 29.1632C70.9855 29.5907 70.558 30.0182 69.988 30.3024C69.4188 30.5865 68.7063 30.8724 67.9947 30.8724C67.283 30.8724 66.5705 30.7299 66.0013 30.3024C65.4313 30.0174 65.0047 29.5907 64.5763 29.1632C63.9328 28.3535 63.5819 27.35 63.5805 26.3157C63.5805 25.1757 64.008 24.3215 64.5772 23.4674C65.0047 23.0399 65.4313 22.6124 66.0013 22.3282C66.5705 22.044 67.2822 21.9007 67.9947 21.9007C68.7072 21.9007 69.2755 22.0424 69.988 22.3282C70.558 22.6132 70.9855 23.0399 71.4121 23.4674C72.1238 24.179 72.4088 25.1757 72.4088 26.3157C72.5513 27.454 72.1238 28.309 71.4121 29.1632ZM21.1463 13.4982H18.298C18.1504 13.5088 18.0116 13.5723 17.9071 13.677C17.8026 13.7817 17.7393 13.9206 17.7288 14.0682C17.7395 14.2156 17.8028 14.3543 17.9074 14.4588C18.0119 14.5633 18.1506 14.6267 18.298 14.6374H21.1463C21.2938 14.6267 21.4324 14.5633 21.5369 14.4588C21.6415 14.3543 21.7049 14.2156 21.7155 14.0682C21.705 13.9206 21.6417 13.7817 21.5372 13.677C21.4327 13.5723 21.2939 13.5088 21.1463 13.4982ZM9.75465 22.3282C8.75798 21.3315 7.47548 20.7615 5.90965 20.7615C4.34298 20.7615 3.06132 21.3315 2.06465 22.3282C1.77965 22.6132 1.49465 23.0399 1.20965 23.4674C0.650323 24.3118 0.353146 25.3028 0.355482 26.3157C0.355482 27.3124 0.640482 28.309 1.20965 29.1632C1.49465 29.5907 1.77965 29.8757 2.06465 30.3024C3.06132 31.299 4.48548 31.869 5.90965 31.869C7.47632 31.869 8.75798 31.299 9.75465 30.3024C10.0388 30.0182 10.3238 29.5907 10.6088 29.1632C11.0363 28.309 11.4638 27.4549 11.4638 26.3157C11.4659 25.3027 11.1684 24.3117 10.6088 23.4674C10.3238 23.0399 10.0396 22.7557 9.75465 22.3282ZM9.18465 29.1632C8.75798 29.5907 8.33048 30.0182 7.76048 30.3024C7.19132 30.5865 6.47882 30.8724 5.76715 30.8724C5.05548 30.8724 4.34298 30.7299 3.77382 30.3024C3.20382 30.0182 2.77715 29.5907 2.34965 29.1632C1.70578 28.3536 1.35455 27.3501 1.35298 26.3157C1.35298 25.1757 1.78048 24.3215 2.34965 23.4674C2.77715 23.0399 3.20465 22.6124 3.77382 22.3282C4.34298 22.044 5.05548 21.9007 5.76715 21.9007C6.47882 21.9007 7.04882 22.0424 7.76048 22.3282C8.33048 22.6132 8.75798 23.0399 9.18548 23.4674C9.89715 24.179 10.1821 25.1757 10.1821 26.3157C10.3238 27.454 9.89632 28.309 9.18465 29.1632ZM47.0638 9.08652L34.533 3.38986C32.6813 2.53486 30.8296 1.96569 28.9788 1.53819C25.8471 0.82569 22.5705 0.684023 19.2955 1.39652L18.1563 1.53819C13.8847 2.39319 9.89798 4.52902 6.90632 7.66152C6.47965 8.08819 6.33715 8.80069 6.62215 9.36986C6.90548 9.93902 7.33382 10.3665 8.04548 10.3665L46.4938 11.2215C46.9213 11.2215 47.3488 10.9357 47.4913 10.509C47.7763 9.65402 47.4913 9.22652 47.0638 9.08402V9.08652ZM15.593 9.22819L8.18798 9.08652C7.90298 9.08652 7.76048 8.80069 7.76048 8.80069C7.76048 8.80069 7.61882 8.51569 7.90215 8.37402C10.0388 6.09486 12.7446 4.38652 15.593 3.38986V9.22819ZM16.5896 9.22819V2.96236C17.1588 2.82069 17.8713 2.67736 18.4413 2.53486L19.5797 2.39319C21.0047 2.10819 22.2863 1.96569 23.7097 1.96569C25.418 1.96569 27.1263 2.10736 28.8355 2.53486C30.6871 2.96236 32.5371 3.53236 34.2463 4.38652L46.208 9.93986L16.5888 9.22736L16.5896 9.22819Z" fill="#0F0F0F" stroke="#0F0F0F" stroke-width="0.3"/>
</svg>
